<svg xmlns="http://www.w3.org/2000/svg" viewBox="0 0 380 80" width="380" height="80">
  <defs>
    <linearGradient id="navyGrad" x1="0%" y1="0%" x2="0%" y2="100%">
      <stop offset="0%" style="stop-color:#1e3a5f;stop-opacity:1" />
      <stop offset="100%" style="stop-color:#0f172a;stop-opacity:1" />
    </linearGradient>
    <linearGradient id="tealGrad" x1="0%" y1="0%" x2="100%" y2="100%">
      <stop offset="0%" style="stop-color:#14b8a6;stop-opacity:1" />
      <stop offset="100%" style="stop-color:#0d9488;stop-opacity:1" />
    </linearGradient>
  </defs>
  
  <!-- Shield shape - scaled down -->
  <g transform="translate(5, 5)">
    <path d="M 35 2 L 65 10 L 65 38 C 65 55 52 65 35 70 C 18 65 5 55 5 38 L 5 10 Z" fill="url(#navyGrad)"/>
    <path d="M 35 9 L 58 15 L 58 37 C 58 50 48 58 35 62 C 22 58 12 50 12 37 L 12 15 Z" fill="none" stroke="url(#tealGrad)" stroke-width="2"/>
    <circle cx="35" cy="35" r="15" fill="url(#tealGrad)"/>
    <path d="M 27 35 L 33 41 L 45 29" fill="none" stroke="white" stroke-width="3.5" stroke-linecap="round" stroke-linejoin="round"/>
  </g>
  
  <!-- Text - single line -->
  <text x="85" y="48" font-family="system-ui, -apple-system, sans-serif" font-size="28" font-weight="800" fill="#0f172a" letter-spacing="-1">
    BalanceBooks
  </text>
  
  <!-- PRO badge -->
  <rect x="305" y="28" width="45" height="24" rx="5" fill="url(#tealGrad)"/>
  <text x="327" y="46" font-family="system-ui, sans-serif" font-size="13" font-weight="800" fill="white" text-anchor="middle">PRO</text>
</svg>
